<mxfile host="app.diagrams.net" modified="2024-05-02T15:46:48.696Z" agent="Mozilla/5.0 (Windows NT 10.0; Win64; x64) AppleWebKit/537.36 (KHTML, like Gecko) Chrome/122.0.0.0 YaBrowser/24.4.0.0 Safari/537.36" version="24.3.1" etag="q4_0YN9oBDrzCnG8ueta" type="github">
  <diagram name="Страница — 1" id="AEoz5LGaJD6g7mLJhErE">
    <mxGraphModel>
      <root>
        <mxCell id="0" />
        <mxCell id="1" parent="0" />
      </root>
    </mxGraphModel>
  </diagram>
</mxfile>
